<?xml version="1.0" encoding="UTF-8"?>
<svg xmlns="http://www.w3.org/2000/svg" viewBox="0 0 512 512" role="img" aria-label="Quizzflix logo icon">
  <defs>
    <linearGradient id="g" x1="0" y1="0" x2="1" y2="1">
      <stop offset="0%" stop-color="#ff3347"/>
      <stop offset="100%" stop-color="#E50914"/>
    </linearGradient>
  </defs>
  <!-- Rounded chat bubble base -->
  <path fill="url(#g)" d="M128 72h256c35.3 0 64 28.7 64 64v152c0 35.3-28.7 64-64 64H232l-70 64c-6.7 6.1-18 1.6-18-7.5V352h-16c-35.3 0-64-28.7-64-64V136c0-35.3 28.7-64 64-64z"/>
  <!-- Clapperboard top -->
  <path fill="#ff4a58" d="M96 112h320v48H96z"/>
  <!-- Clapperboard stripes -->
  <path fill="#ffffff" fill-opacity=".25" d="M116 112h44l-20 48h-44zM190 112h44l-20 48h-44zM264 112h44l-20 48h-44zM338 112h44l-20 48h-44z"/>
  <!-- Play triangle -->
  <path fill="#ffffff" fill-opacity=".9" d="M220 208l96 56-96 56z"/>
</svg>